{"title":"Baby Daddy S01e01-05, [Mux - XviD - Ita Mp3] Mux [TNTVillage]","uid":15319443,"size":1405370968,"categoryP":"video","categoryS":"tv_shows","magnet":"?xt=urn:btih:f6dd6c9f5893a6d9d9ec2c95c4c96583ba0eadec&amp;dn=Baby+Daddy+S01e01-05%2C+%5BMux+-+XviD+-+Ita+Mp3%5D+Mux+%5BTNTVillage%5D&amp;tr=udp%3A%2F%2Ftracker.leechers-paradise.org%3A6969&amp;tr=udp%3A%2F%2Fzer0day.ch%3A1337&amp;tr=udp%3A%2F%2Fopen.demonii.com%3A1337&amp;tr=udp%3A%2F%2Ftracker.coppersurfer.tk%3A6969&amp;tr=udp%3A%2F%2Fexodus.desync.com%3A6969","seeders":1,"leechers":0,"uploader":null,"files":5,"time":1468628576,"description":"[b][SIZE=7][color=blue]Baby Daddy S01e01-05[/SIZE][/color][/b]\r\n\r\n\r\n[b][color=green].: Crediti :.[/color][/b]\r\n\r\nPaese: \tStati Uniti d'America\r\nAnno: \t2012 – in produzione\r\nGenere: \tsitcom\r\nEpisodi: \t10\r\nDurata: \t22 min\r\nIdeatore: \tDan Berendsen\r\n\r\n[b][color=green].: Cast :.[/color][/b]  \r\nJean-Luc Bilodeau: Ben Wheeler\r\nTahj Mowry: Tucker Dobbs\r\nDerek Theler: Danny J. Wheeler\r\nMelissa Peterman: Bonnie Wheeler\r\nChelsea Kane: Riley Perrin\r\n\r\n[b][color=green].: Trama :.[/color][/b]  \r\nBen, un barista di circa venti anni, trova davanti alla porta di casa sua una bambina, che scoprirà essere sua figlia, abbandonata da una ragazza che aveva frequentato per breve tempo. Decide di crescere la bambina con l'aiuto di suo fratello Danny, la loro amica di vecchia data Riley, il loro coinquilino Tucker e la madre di Ben e Danny, Bonnie.\r\n\r\n\r\n[b][color=green].: Scheda tecnica :.[/color][/b]\r\n[spoiler]\r\nGeneral\r\nFormat                      : AVI\r\nFormat/Info                 : Audio Video Interleave\r\nFile size                   : 278 MiB\r\nDuration                    : 22mn 22s\r\nOverall bit rate            : 1 740 Kbps\r\nWriting application         : Lavf51.12.1\r\n\r\nVideo\r\nID                          : 0\r\nFormat                      : xvid\r\nCodec ID                    : xvid\r\nDuration                    : 22mn 22s\r\nBit rate                    : 1 600 Kbps\r\nWidth                       : 720 pixels\r\nHeight                      : 400 pixels\r\nDisplay aspect ratio        : 16:9\r\nFrame rate                  : 23.976 fps\r\nBits/(Pixel*Frame)          : 0.232\r\nStream size                 : 256 MiB (92%)\r\n\r\nAudio\r\nID                          : 1\r\nFormat                      : MPEG Audio\r\nFormat version              : Version 1\r\nFormat profile              : Layer 3\r\nMode                        : Joint stereo\r\nMode extension              : MS Stereo\r\nCodec ID                    : 55\r\nCodec ID/Hint               : MP3\r\nDuration                    : 22mn 22s\r\nBit rate mode               : Constant\r\nBit rate                    : 128 Kbps\r\nChannel(s)                  : 2 channels\r\nSampling rate               : 44.1 KHz\r\nCompression mode            : Lossy\r\nStream size                 : 20.5 MiB (7%)\r\nAlignment                   : Aligned on interleaves\r\nInterleave, duration        : 26 ms (0.63 video frame)\r\nInterleave, preload duratio : 26 ms","torrent":{"xt":"urn:btih:f6dd6c9f5893a6d9d9ec2c95c4c96583ba0eadec","amp;dn":"Baby+Daddy+S01e01-05%2C+%5BMux+-+XviD+-+Ita+Mp3%5D+Mux+%5BTNTVillage%5D","amp;tr":["udp%3A%2F%2Ftracker.leechers-paradise.org%3A6969","udp%3A%2F%2Fzer0day.ch%3A1337","udp%3A%2F%2Fopen.demonii.com%3A1337","udp%3A%2F%2Ftracker.coppersurfer.tk%3A6969","udp%3A%2F%2Fexodus.desync.com%3A6969"],"infoHash":"f6dd6c9f5893a6d9d9ec2c95c4c96583ba0eadec","infoHashBuffer":{"type":"Buffer","data":[246,221,108,159,88,147,166,217,217,236,44,149,196,201,101,131,186,14,173,236]},"announce":[],"urlList":[]}}